<svg xmlns="http://www.w3.org/2000/svg" viewBox="0 0 250 250"><defs><style>.cls-1{fill:#fff;}</style></defs><title>Personal Logo</title><g id="SVG"><g id="white"><path id="Left" class="cls-1" d="M43.47,236.66c-10.58-5.77-14.42-15.86-14.42-31.49l.24-44.95c.24-8.66-1.93-16.11-5.77-21.88,9.37,4.09,13.94,9.38,13.94,17.07L37.7,215Q37.7,228,43.47,236.66ZM23,114.54c4.08-6.25,6.25-13.7,6.25-22.83L29.05,46c-.25-16.34,3.84-26.68,14.18-32.69-3.61,6-5.53,13.46-5.53,22.6l-.24,60.57C37.46,104.45,33.13,110.46,23,114.54Z"/><path id="Right" class="cls-1" d="M212.3,215l.24-59.62c0-7.69,4.57-13,13.94-17.07-3.84,5.77-6,13.22-5.77,21.88l.24,44.95c0,15.63-3.84,25.72-14.42,31.49Q212.31,228,212.3,215Zm.24-118.52-.24-60.57c0-9.14-1.92-16.59-5.53-22.6C217.11,19.35,221.2,29.69,221,46l-.24,45.68c0,9.13,2.17,16.58,6.25,22.83C216.87,110.46,212.54,104.45,212.54,96.51Z"/><path id="Center" class="cls-1" d="M132,20.18c0-5.4.7-9.64,2.74-13h-19.5c2,3.33,2.74,7.57,2.74,13v210.1c0,5.15-.64,9.25-2.48,12.51h19c-1.84-3.26-2.48-7.36-2.48-12.51Z"/></g></g></svg>